<?xml version="1.0" encoding="UTF-8" standalone="no"?>
<svg
   xmlns:xmpRights="http://ns.adobe.com/xap/1.0/rights/"
   xmlns:xmp="http://ns.adobe.com/xap/1.0/"
   xmlns:x="adobe:ns:meta/"
   xmlns:dc="http://purl.org/dc/elements/1.1/"
   xmlns:cc="http://creativecommons.org/ns#"
   xmlns:rdf="http://www.w3.org/1999/02/22-rdf-syntax-ns#"
   xmlns:svg="http://www.w3.org/2000/svg"
   xmlns="http://www.w3.org/2000/svg"
   xmlns:xlink="http://www.w3.org/1999/xlink"
   xmlns:sodipodi="http://sodipodi.sourceforge.net/DTD/sodipodi-0.dtd"
   xmlns:inkscape="http://www.inkscape.org/namespaces/inkscape"
   width="538"
   height="137"
   viewBox="0 0 538 137"
   version="1.1"
   id="svg44"
   sodipodi:docname="logo_wall.svg"
   inkscape:version="1.0 (4035a4f, 2020-05-01)">
  <sodipodi:namedview
     inkscape:document-rotation="0"
     pagecolor="#ffffff"
     bordercolor="#666666"
     borderopacity="1"
     objecttolerance="10"
     gridtolerance="10"
     guidetolerance="10"
     inkscape:pageopacity="0"
     inkscape:pageshadow="2"
     inkscape:window-width="1280"
     inkscape:window-height="754"
     id="namedview46"
     showgrid="false"
     inkscape:object-paths="true"
     inkscape:snap-global="false"
     inkscape:zoom="2.0910781"
     inkscape:cx="229.09516"
     inkscape:cy="48.412443"
     inkscape:window-x="0"
     inkscape:window-y="23"
     inkscape:window-maximized="0"
     inkscape:current-layer="text1099"
     showguides="true"
     inkscape:guide-bbox="true" />
  <metadata
     id="metadata10">
<?xpacket begin="﻿" id="W5M0MpCehiHzreSzNTczkc9d"?>    <x:xmpmeta
       x:xmptk="Adobe XMP Core 6.0-c002 79.164460, 2020/05/12-16:04:17        ">
      <metadata>
        <rdf:RDF>
          <rdf:Description
             rdf:about="">
            <xmp:CreatorTool>Adobe Photoshop CS3 Macintosh</xmp:CreatorTool>
            <xmpRights:Marked>False</xmpRights:Marked>
          </rdf:Description>
          <cc:Work
             rdf:about="">
            <dc:format>image/svg+xml</dc:format>
            <dc:type
               rdf:resource="http://purl.org/dc/dcmitype/StillImage" />
            <dc:title />
          </cc:Work>
        </rdf:RDF>
      </metadata>
    </x:xmpmeta>
<?xpacket end="w"?>  </metadata>
  <defs
     id="defs36">
    <linearGradient
       inkscape:collect="always"
       id="linearGradient81668">
      <stop
         style="stop-color:#ffffff;stop-opacity:1;"
         offset="0"
         id="stop81664" />
      <stop
         style="stop-color:#e6e6e6;stop-opacity:1"
         offset="1"
         id="stop81666" />
    </linearGradient>
    <style
       id="style12">
      .cls-1 {
        font-size: 140px;
        filter: url(#filter);
        font-family: &quot;Heiti SC&quot;;
        font-weight: 300;
      }

      .cls-1, .cls-2 {
        fill: #4d5151;
      }

      .cls-2 {
        font-size: 26px;
        filter: url(#filter-2);
        text-anchor: middle;
        font-family: &quot;Heiti TC&quot;;
        font-weight: 500;
      }
    </style>
    <filter
       id="filter"
       x="0"
       y="3"
       width="538"
       height="108"
       filterUnits="userSpaceOnUse">
      <feOffset
         result="offset"
         dy="1"
         in="SourceAlpha"
         id="feOffset14" />
      <feGaussianBlur
         result="blur"
         id="feGaussianBlur16" />
      <feFlood
         result="flood"
         flood-color="#fff"
         flood-opacity="0.5"
         id="feFlood18" />
      <feComposite
         result="composite"
         operator="in"
         in2="blur"
         id="feComposite20" />
      <feBlend
         result="blend"
         in="SourceGraphic"
         in2="composite"
         id="feBlend22" />
    </filter>
    <filter
       id="filter-2"
       x="306"
       y="113"
       width="227"
       height="21"
       filterUnits="userSpaceOnUse">
      <feOffset
         result="offset"
         dy="1"
         in="SourceAlpha"
         id="feOffset25" />
      <feGaussianBlur
         result="blur"
         id="feGaussianBlur27" />
      <feFlood
         result="flood"
         flood-color="#fff"
         flood-opacity="0.5"
         id="feFlood29" />
      <feComposite
         result="composite"
         operator="in"
         in2="blur"
         id="feComposite31" />
      <feBlend
         result="blend"
         in="SourceGraphic"
         in2="composite"
         id="feBlend33" />
    </filter>
    <linearGradient
       inkscape:collect="always"
       xlink:href="#linearGradient81668"
       id="linearGradient81672"
       gradientUnits="userSpaceOnUse"
       x1="315.13086"
       y1="75.645439"
       x2="315.13086"
       y2="136.67667"
       gradientTransform="translate(-0.95644444,-1.5217778)" />
    <filter
       filterUnits="userSpaceOnUse"
       height="108"
       width="538"
       y="3"
       x="0"
       id="filter-5">
      <feOffset
         id="feOffset14-7"
         in="SourceAlpha"
         dy="1"
         result="offset" />
      <feGaussianBlur
         id="feGaussianBlur16-2"
         result="blur" />
      <feFlood
         id="feFlood18-9"
         flood-opacity="0.5"
         flood-color="#fff"
         result="flood" />
      <feComposite
         id="feComposite20-7"
         in2="blur"
         operator="in"
         result="composite" />
      <feBlend
         id="feBlend22-5"
         in2="composite"
         in="SourceGraphic"
         result="blend"
         mode="normal" />
    </filter>
    <mask
       maskUnits="userSpaceOnUse"
       id="mask82261">
      <ellipse
         style="opacity:1;fill:#2b0000;fill-opacity:1;fill-rule:nonzero;stroke:none"
         id="ellipse82263"
         cx="187.70222"
         cy="-20.085333"
         rx="10.76"
         ry="4.7822223" />
    </mask>
    <filter
       filterUnits="userSpaceOnUse"
       height="21"
       width="227"
       y="113"
       x="306"
       id="filter-2-8">
      <feOffset
         id="feOffset25-9"
         in="SourceAlpha"
         dy="1"
         result="offset" />
      <feGaussianBlur
         id="feGaussianBlur27-7"
         result="blur" />
      <feFlood
         id="feFlood29-5"
         flood-opacity="0.5"
         flood-color="#fff"
         result="flood" />
      <feComposite
         id="feComposite31-5"
         in2="blur"
         operator="in"
         result="composite" />
      <feBlend
         id="feBlend33-2"
         in2="composite"
         in="SourceGraphic"
         result="blend"
         mode="normal" />
    </filter>
    <linearGradient
       inkscape:collect="always"
       xlink:href="#linearGradient81668"
       id="linearGradient82783"
       gradientUnits="userSpaceOnUse"
       gradientTransform="translate(-0.95644444,-2.5653356)"
       x1="315.13086"
       y1="75.645439"
       x2="315.13086"
       y2="136.67667" />
  </defs>
  <path
     id="path80804"
     style="display:inline;fill:#808080;fill-opacity:1;fill-rule:evenodd;stroke-width:1.18589"
     d="m 315.13086,2.3035138 c -9.43663,1.6e-5 -18.42673,1.8776042 -26.60352,5.2734375 -8.1768,3.3958327 -15.54053,8.3088277 -21.72461,14.3808587 -6.18407,6.072032 -11.18803,13.303421 -14.64648,21.332031 -3.45845,8.028611 -0.1114,16.377008 -0.11133,25.642578 -7e-5,9.26557 -3.34712,18.571 0.11133,26.59961 3.45845,8.028601 8.46241,15.258041 14.64648,21.330071 6.18408,6.07203 13.54781,10.98698 21.72461,14.38281 8.17679,3.39584 17.16689,5.27342 26.60352,5.27344 0.48703,-7.6e-4 0.97404,-0.007 1.46094,-0.0176 v 0.002 H 537 V 108.3914 H 370.76172 c 4.13454,-5.68819 7.31398,-11.939616 9.45898,-18.515621 2.14499,-6.576004 -1.52571,-13.476581 -1.52539,-20.464844 7e-5,-9.26557 2.86861,-18.092483 -0.58984,-26.121094 C 374.64702,35.261231 369.64305,28.029842 363.45898,21.95781 357.2749,15.885779 349.91117,10.972784 341.73438,7.5769513 333.55757,4.181118 324.56749,2.3035298 315.13086,2.3035138 Z m -1.7207,27.7382802 a 33.475555,35.388443 0 0 1 0.30273,0 33.475555,35.388443 0 0 1 33.47656,35.386719 33.475555,35.388443 0 0 1 -33.47656,35.388667 33.475555,35.388443 0 0 1 -33.47461,-35.388667 33.475555,35.388443 0 0 1 33.17188,-35.386719 z" />
  <path
     id="path80811"
     style="display:inline;fill:url(#linearGradient82783);fill-opacity:1;fill-rule:nonzero;stroke:none;stroke-width:1.18589"
     d="m 315.13086,0.39003442 c -18.87326,4e-5 -35.95999,7.51218998 -48.32813,19.65624958 -6.18407,6.07203 -11.18803,13.30147 -14.64648,21.330082 -3.45845,8.02861 0.84563,16.855524 0.8457,26.121094 -7e-5,9.265571 -4.30415,18.092482 -0.8457,26.121093 3.45845,8.028597 8.46241,15.259997 14.64648,21.332027 12.36815,12.14406 29.45487,19.65427 48.32813,19.6543 0.48703,-7.6e-4 0.97404,-0.007 1.46094,-0.0176 v 0.002 H 537 V 106.47792 H 370.76172 c 4.13454,-5.68819 7.31398,-11.939611 9.45898,-18.515617 2.14499,-6.576005 -2.48274,-13.955096 -2.48242,-20.943359 7e-5,-9.26557 3.82564,-17.613967 0.36719,-25.642578 C 374.64702,33.347754 369.64305,26.118324 363.45898,20.046284 351.09083,7.9022244 334.00411,0.39007442 315.13086,0.39003442 Z M 312.93164,28.606834 a 33.475555,35.388443 0 0 1 0.30469,0 33.475555,35.388443 0 0 1 33.47461,35.388672 33.475555,35.388443 0 0 1 -33.47461,35.386718 33.475555,35.388443 0 0 1 -33.47656,-35.386718 33.475555,35.388443 0 0 1 33.17187,-35.388672 z" />
  <g
     inkscape:label="wallace sombra"
     style="font-style:normal;font-variant:normal;font-weight:300;font-stretch:normal;font-size:140px;line-height:1.25;font-family:'Heiti SC';-inkscape-font-specification:'Heiti SC Light';display:inline;fill:#e6e6e6;fill-opacity:1;stroke:none"
     id="text1099"
     aria-label="wallace">
    <path
       d="m 526.96313,82.122814 8.12,4.2 q -12.04,22.399996 -35.56,22.399996 -16.8,0 -27.72,-11.479996 -10.92,-11.62 -10.92,-27.86 0,-16.24 10.92,-27.86 11.06,-11.62 27.16,-11.62 16.24,0 27.16,10.78 11.06,10.78 11.48,29.4 h -66.92 q 0.42,13.44 8.4,21.7 8.12,8.12 19.6,8.12 18.9,0 28.28,-17.78 z m 0,-20.3 q -1.96,-10.64 -9.8,-16.66 -7.84,-6.02 -18.06,-6.02 -21,0 -27.44,22.68 z m -80.42782,-14.56 -7.56,4.76 q -9.8,-13.02 -26.88,-13.02 -13.44,0 -22.54,8.68 -9.1,8.54 -9.1,21.28 0,12.74 8.96,21.84 8.96,9.1 22.68,9.1 16.38,0 26.88,-13.02 l 7.56,5.04 q -5.6,8.119996 -15.12,12.459996 -9.38,4.34 -20.3,4.34 -17.22,0 -28.84,-11.339996 -11.48,-11.34 -11.48,-27.72 0,-16.38 11.62,-28 11.76,-11.76 30.1,-11.76 10.78,0 19.88,4.62 9.24,4.62 14.14,12.74 z m -94.30312,-15.4 v 74.339996 h -9.38 V 93.462814 q -12.74,15.259996 -29.12,15.259996 -16.38,0 -27.72,-11.619996 -11.2,-11.76 -11.2,-27.86 0,-16.24 11.34,-27.72 11.34,-11.62 27.16,-11.62 18.2,0 29.54,15.54 v -13.58 z m -8.82,37.52 q 0,-12.74 -8.54,-21.42 -8.54,-8.82 -21,-8.82 -12.32,0 -20.86,9.1 -8.54,8.96 -8.54,21.28 0,12.32 8.68,21.42 8.68,8.96 20.72,8.96 12.18,0 20.86,-8.68 8.68,-8.68 8.68,-21.84 z M 248.88156,3.1628137 h 9.52 V 106.20281 h -9.52 z m -27.89062,0 h 9.52 V 106.20281 h -9.52 z M 200.74781,31.862814 v 74.339996 h -9.38 V 93.462814 q -12.74,15.259996 -29.12,15.259996 -16.38,0 -27.72,-11.619996 -11.2,-11.76 -11.2,-27.86 0,-16.24 11.34,-27.72 11.34,-11.62 27.16,-11.62 18.2,0 29.54,15.54 v -13.58 z m -8.82,37.52 q 0,-12.74 -8.54,-21.42 -8.54,-8.82 -21,-8.82 -12.32,0 -20.86,9.1 -8.54,8.96 -8.54,21.28 0,12.32 8.68,21.42 8.68,8.96 20.72,8.96 12.18,0 20.86,-8.68 8.68,-8.68 8.68,-21.84 z M 0.39687501,31.862814 H 10.336875 l 22.68,56.42 23.94,-56.42 h 1.68 l 23.8,56.42 23.100005,-56.42 h 10.08 L 83.276875,108.72281 h -1.82 l -23.66,-55.719996 -23.8,55.719996 h -1.82 z"
       style="font-style:normal;font-variant:normal;font-weight:300;font-stretch:normal;font-size:140px;font-family:'Heiti SC';-inkscape-font-specification:'Heiti SC Light';display:inline;fill:#e6e6e6;fill-opacity:1"
       id="path83" />
  </g>
  <g
     inkscape:label="wallace"
     style="font-style:normal;font-variant:normal;font-weight:300;font-stretch:normal;font-size:140px;line-height:1.25;font-family:'Heiti SC';-inkscape-font-specification:'Heiti SC Light';display:inline;fill:#4d5151;fill-opacity:1;stroke:none"
     id="text1099-9"
     aria-label="wallace">
    <path
       d="m 526.96313,79.792453 8.12,4.2 q -12.04,22.399997 -35.56,22.399997 -16.8,0 -27.72,-11.479997 -10.92,-11.62 -10.92,-27.86 0,-16.24 10.92,-27.86 11.06,-11.62 27.16,-11.62 16.24,0 27.16,10.78 11.06,10.78 11.48,29.4 h -66.92 q 0.42,13.44 8.4,21.7 8.12,8.12 19.6,8.12 18.9,0 28.28,-17.78 z m 0,-20.3 q -1.96,-10.64 -9.8,-16.66 -7.84,-6.02 -18.06,-6.02 -21,0 -27.44,22.68 z m -80.42782,-14.56 -7.56,4.76 q -9.8,-13.02 -26.88,-13.02 -13.44,0 -22.54,8.68 -9.1,8.54 -9.1,21.28 0,12.74 8.96,21.84 8.96,9.1 22.68,9.1 16.38,0 26.88,-13.02 l 7.56,5.04 q -5.6,8.12 -15.12,12.459997 -9.38,4.34 -20.3,4.34 -17.22,0 -28.84,-11.339997 -11.48,-11.34 -11.48,-27.72 0,-16.38 11.62,-28 11.76,-11.76 30.1,-11.76 10.78,0 19.88,4.62 9.24,4.62 14.14,12.74 z m -94.30312,-15.4 v 74.339997 h -9.38 V 91.132453 q -12.74,15.259997 -29.12,15.259997 -16.38,0 -27.72,-11.619997 -11.2,-11.76 -11.2,-27.86 0,-16.24 11.34,-27.72 11.34,-11.62 27.16,-11.62 18.2,0 29.54,15.54 v -13.58 z m -8.82,37.52 q 0,-12.74 -8.54,-21.42 -8.54,-8.82 -21,-8.82 -12.32,0 -20.86,9.1 -8.54,8.96 -8.54,21.28 0,12.32 8.68,21.42 8.68,8.96 20.72,8.96 12.18,0 20.86,-8.68 8.68,-8.68 8.68,-21.84 z M 248.88156,0.83245331 h 9.52 V 103.87245 h -9.52 z m -27.89062,0 h 9.52 V 103.87245 h -9.52 z M 200.74781,29.532453 v 74.339997 h -9.38 V 91.132453 q -12.74,15.259997 -29.12,15.259997 -16.38,0 -27.72,-11.619997 -11.2,-11.76 -11.2,-27.86 0,-16.24 11.34,-27.72 11.34,-11.62 27.16,-11.62 18.2,0 29.54,15.54 v -13.58 z m -8.82,37.52 q 0,-12.74 -8.54,-21.42 -8.54,-8.82 -21,-8.82 -12.32,0 -20.86,9.1 -8.54,8.96 -8.54,21.28 0,12.32 8.68,21.42 8.68,8.96 20.72,8.96 12.18,0 20.86,-8.68 8.68,-8.68 8.68,-21.84 z M 0.39687501,29.532453 H 10.336875 l 22.68,56.42 23.94,-56.42 h 1.68 l 23.8,56.42 23.100005,-56.42 h 10.08 L 83.276875,106.39245 h -1.82 l -23.66,-55.719997 -23.8,55.719997 h -1.82 z"
       style="font-style:normal;font-variant:normal;font-weight:300;font-stretch:normal;font-size:140px;font-family:'Heiti SC';-inkscape-font-specification:'Heiti SC Light';fill:#4d5151;fill-opacity:1"
       id="path68" />
  </g>
  <g
     inkscape:label="oliveira sombra"
     style="font-style:normal;font-weight:normal;font-size:24px;line-height:1.25;font-family:sans-serif;letter-spacing:4.5px;fill:#e6e6e6;fill-opacity:1;stroke:none"
     id="text1213"
     aria-label="OLIVEIRA.COM">
    <path
       d="m 530.48366,130.77867 h -2.04 l -1.632,-11.952 -5.904,11.952 h -0.624 l -5.976,-12.048 -1.632,12.048 h -1.992 l 2.496,-17.568 h 0.504 l 6.912,13.944 6.864,-13.944 h 0.504 z m -35.96737,-18 q 2.568,0 4.728,1.224 2.16,1.2 3.384,3.336 1.248,2.136 1.248,4.656 0,2.496 -1.224,4.632 -1.224,2.136 -3.36,3.36 -2.136,1.224 -4.656,1.224 -2.496,0 -4.656,-1.2 -2.16,-1.224 -3.384,-3.336 -1.224,-2.136 -1.224,-4.632 0,-2.52 1.224,-4.656 1.224,-2.16 3.336,-3.384 2.136,-1.224 4.584,-1.224 z m 0.072,16.416 q 3,0 5.064,-2.04 2.088,-2.04 2.088,-5.112 0,-3.072 -2.112,-5.16 -2.088,-2.088 -5.04,-2.088 -3.024,0 -5.064,2.112 -2.016,2.088 -2.016,5.112 0,3 2.088,5.088 2.088,2.088 4.992,2.088 z m -15.984,-1.632 q -2.832,3.648 -7.776,3.648 -4.176,0 -6.84,-2.64 -2.664,-2.64 -2.664,-6.672 0,-2.496 1.224,-4.608 1.248,-2.112 3.432,-3.312 2.184,-1.2 4.704,-1.2 2.544,0 4.536,0.984 2.016,0.96 3.36,2.832 l -1.584,1.224 q -2.496,-3.024 -6.168,-3.024 -3,0 -5.184,2.112 -2.16,2.112 -2.16,5.184 0,3.048 2.112,5.112 2.136,2.04 5.52,2.04 3.384,0 5.88,-2.904 z m -25.94025,-0.888 q 0.672,0 1.128,0.48 0.48,0.456 0.48,1.152 0,0.672 -0.48,1.152 -0.456,0.456 -1.128,0.456 -0.648,0 -1.128,-0.48 -0.48,-0.48 -0.48,-1.152 0,-0.672 0.48,-1.128 0.48,-0.48 1.128,-0.48 z m -8.46563,4.104 h -2.184 l -2.712,-5.88 h -7.248 l -2.688,5.88 h -2.28 l 8.304,-18.264 h 0.624 z m -5.832,-7.968 -2.664,-5.928 -2.688,5.928 z m -17.08612,7.968 h -2.592 l -6.192,-8.016 h -0.72 v 8.016 h -2.064 v -17.568 h 3.6 q 2.88,0 3.96,0.264 1.08,0.24 1.872,0.84 0.792,0.6 1.248,1.56 0.456,0.936 0.456,2.088 0,2.184 -1.488,3.504 -1.488,1.296 -4.296,1.296 z m -9.504,-10.032 h 2.808 q 2.112,0.024 3.12,-0.624 1.008,-0.672 1.008,-2.112 0,-1.464 -0.984,-2.112 -0.984,-0.672 -3.072,-0.672 h -2.88 z m -10.2735,10.032 h -2.064 v -17.568 h 2.064 z m -8.91975,-15.528 h -8.16 v 5.04 h 8.088 v 2.016 h -8.088 v 6.432 h 8.088 v 2.04 h -10.152 v -17.568 h 10.224 z m -17.20013,-2.04 -7.656,18 h -0.552 l -7.536,-18 h 2.208 l 5.616,13.512 5.712,-13.512 z m -22.4895,17.568 h -2.064 v -17.568 h 2.064 z m -8.72137,0 h -8.712 v -17.568 h 2.088 v 15.576 h 6.624 z m -25.67138,-18 q 2.568,0 4.728,1.224 2.16,1.2 3.384,3.336 1.248,2.136 1.248,4.656 0,2.496 -1.224,4.632 -1.224,2.136 -3.36,3.36 -2.136,1.224 -4.656,1.224 -2.496,0 -4.656,-1.2 -2.16,-1.224 -3.384,-3.336 -1.224,-2.136 -1.224,-4.632 0,-2.52 1.224,-4.656 1.224,-2.16 3.336,-3.384 2.136,-1.224 4.584,-1.224 z m 0.072,16.416 q 3,0 5.064,-2.04 2.088,-2.04 2.088,-5.112 0,-3.072 -2.112,-5.16 -2.088,-2.088 -5.04,-2.088 -3.024,0 -5.064,2.112 -2.016,2.088 -2.016,5.112 0,3 2.088,5.088 2.088,2.088 4.992,2.088 z"
       style="font-style:normal;font-variant:normal;font-weight:500;font-stretch:normal;font-size:24px;font-family:'Heiti TC';-inkscape-font-specification:'Heiti TC Medium';text-align:center;text-anchor:middle;fill:#e6e6e6;fill-opacity:1"
       id="path133" />
  </g>
  <g
     inkscape:label="oliveira"
     style="font-style:normal;font-weight:normal;font-size:24px;line-height:1.25;font-family:sans-serif;letter-spacing:4.5px;fill:#4d5151;fill-opacity:1;stroke:none"
     id="text1213-3"
     aria-label="OLIVEIRA.COM">
    <path
       d="m 530.48366,129.51332 h -2.04 l -1.632,-11.952 -5.904,11.952 h -0.624 l -5.976,-12.048 -1.632,12.048 h -1.992 l 2.496,-17.568 h 0.504 l 6.912,13.944 6.864,-13.944 h 0.504 z m -35.96737,-18 q 2.568,0 4.728,1.224 2.16,1.2 3.384,3.336 1.248,2.136 1.248,4.656 0,2.496 -1.224,4.632 -1.224,2.136 -3.36,3.36 -2.136,1.224 -4.656,1.224 -2.496,0 -4.656,-1.2 -2.16,-1.224 -3.384,-3.336 -1.224,-2.136 -1.224,-4.632 0,-2.52 1.224,-4.656 1.224,-2.16 3.336,-3.384 2.136,-1.224 4.584,-1.224 z m 0.072,16.416 q 3,0 5.064,-2.04 2.088,-2.04 2.088,-5.112 0,-3.072 -2.112,-5.16 -2.088,-2.088 -5.04,-2.088 -3.024,0 -5.064,2.112 -2.016,2.088 -2.016,5.112 0,3 2.088,5.088 2.088,2.088 4.992,2.088 z m -15.984,-1.632 q -2.832,3.648 -7.776,3.648 -4.176,0 -6.84,-2.64 -2.664,-2.64 -2.664,-6.672 0,-2.496 1.224,-4.608 1.248,-2.112 3.432,-3.312 2.184,-1.2 4.704,-1.2 2.544,0 4.536,0.984 2.016,0.96 3.36,2.832 l -1.584,1.224 q -2.496,-3.024 -6.168,-3.024 -3,0 -5.184,2.112 -2.16,2.112 -2.16,5.184 0,3.048 2.112,5.112 2.136,2.04 5.52,2.04 3.384,0 5.88,-2.904 z m -25.94025,-0.888 q 0.672,0 1.128,0.48 0.48,0.456 0.48,1.152 0,0.672 -0.48,1.152 -0.456,0.456 -1.128,0.456 -0.648,0 -1.128,-0.48 -0.48,-0.48 -0.48,-1.152 0,-0.672 0.48,-1.128 0.48,-0.48 1.128,-0.48 z m -8.46563,4.104 h -2.184 l -2.712,-5.88 h -7.248 l -2.688,5.88 h -2.28 l 8.304,-18.264 h 0.624 z m -5.832,-7.968 -2.664,-5.928 -2.688,5.928 z m -17.08612,7.968 h -2.592 l -6.192,-8.016 h -0.72 v 8.016 h -2.064 v -17.568 h 3.6 q 2.88,0 3.96,0.264 1.08,0.24 1.872,0.84 0.792,0.6 1.248,1.56 0.456,0.936 0.456,2.088 0,2.184 -1.488,3.504 -1.488,1.296 -4.296,1.296 z m -9.504,-10.032 h 2.808 q 2.112,0.024 3.12,-0.624 1.008,-0.672 1.008,-2.112 0,-1.464 -0.984,-2.112 -0.984,-0.672 -3.072,-0.672 h -2.88 z m -10.2735,10.032 h -2.064 v -17.568 h 2.064 z m -8.91975,-15.528 h -8.16 v 5.04 h 8.088 v 2.016 h -8.088 v 6.432 h 8.088 v 2.04 h -10.152 v -17.568 h 10.224 z m -17.20013,-2.04 -7.656,18 h -0.552 l -7.536,-18 h 2.208 l 5.616,13.512 5.712,-13.512 z m -22.4895,17.568 h -2.064 v -17.568 h 2.064 z m -8.72137,0 h -8.712 v -17.568 h 2.088 v 15.576 h 6.624 z m -25.67138,-18 q 2.568,0 4.728,1.224 2.16,1.2 3.384,3.336 1.248,2.136 1.248,4.656 0,2.496 -1.224,4.632 -1.224,2.136 -3.36,3.36 -2.136,1.224 -4.656,1.224 -2.496,0 -4.656,-1.2 -2.16,-1.224 -3.384,-3.336 -1.224,-2.136 -1.224,-4.632 0,-2.52 1.224,-4.656 1.224,-2.16 3.336,-3.384 2.136,-1.224 4.584,-1.224 z m 0.072,16.416 q 3,0 5.064,-2.04 2.088,-2.04 2.088,-5.112 0,-3.072 -2.112,-5.16 -2.088,-2.088 -5.04,-2.088 -3.024,0 -5.064,2.112 -2.016,2.088 -2.016,5.112 0,3 2.088,5.088 2.088,2.088 4.992,2.088 z"
       style="font-style:normal;font-variant:normal;font-weight:500;font-stretch:normal;font-size:24px;font-family:'Heiti TC';-inkscape-font-specification:'Heiti TC Medium';text-align:center;text-anchor:middle;fill:#4d5151;fill-opacity:1"
       id="path108" />
  </g>
</svg>
